<?xml version="1.0" encoding="UTF-8"?>
<svg version="1.1" xmlns="http://www.w3.org/2000/svg" width="32" height="32">
<path d="M0 0 C1.33417969 -0.02900391 1.33417969 -0.02900391 2.6953125 -0.05859375 C6.9609197 -0.02676086 9.407733 0.25764452 13.0859375 2.5390625 C15.80755204 6.92697165 15.73516532 10.55739511 15.625 15.625 C15.65400391 16.95917969 15.65400391 16.95917969 15.68359375 18.3203125 C15.6497724 22.8523735 15.46143258 25.00218353 12.69921875 28.73046875 C9.27359745 31.13484839 7.09673594 31.02664078 3 30.625 C3 26.665 3 22.705 3 18.625 C4.32 18.625 5.64 18.625 7 18.625 C7 17.965 7 17.305 7 16.625 C5.68 16.295 4.36 15.965 3 15.625 C3.185625 14.820625 3.37125 14.01625 3.5625 13.1875 C3.706875 12.341875 3.85125 11.49625 4 10.625 C3.67 10.295 3.34 9.965 3 9.625 C2.34 11.935 1.68 14.245 1 16.625 C0.01 16.625 -0.98 16.625 -2 16.625 C-2 17.285 -2 17.945 -2 18.625 C-0.68 18.955 0.64 19.285 2 19.625 C2.02688151 21.27074566 2.04634123 22.91661413 2.0625 24.5625 C2.07410156 25.47902344 2.08570312 26.39554688 2.09765625 27.33984375 C2 29.625 2 29.625 1 30.625 C-1.328125 30.8984375 -1.328125 30.8984375 -4.25 31 C-5.20390625 31.04898437 -6.1578125 31.09796875 -7.140625 31.1484375 C-11.28452288 30.3898551 -12.58434799 29.06232562 -15 25.625 C-15.71593265 22.27036539 -15.6993212 19.04377507 -15.625 15.625 C-15.64433594 14.73554688 -15.66367188 13.84609375 -15.68359375 12.9296875 C-15.65176086 8.6640803 -15.36735548 6.217267 -13.0859375 2.5390625 C-8.69802835 -0.18255204 -5.06760489 -0.11016532 0 0 Z M-11.53125 4.09375 C-13.7344506 7.8907553 -13.58270073 11.31077879 -13.5 15.625 C-13.51546875 16.43195312 -13.5309375 17.23890625 -13.546875 18.0703125 C-13.52176739 21.87411472 -13.44046848 23.98963396 -11.234375 27.171875 C-7.66655809 29.49220348 -5.1743168 28.90328779 -1 28.625 C-1 25.985 -1 23.345 -1 20.625 C-1.99 20.625 -2.98 20.625 -4 20.625 C-4 18.645 -4 16.665 -4 14.625 C-3.01 14.625 -2.02 14.625 -1 14.625 C-0.34 12.315 0.32 10.005 1 7.625 C5.455 7.13 5.455 7.13 10 6.625 C9.67 8.275 9.34 9.925 9 11.625 C8.01 11.955 7.02 12.285 6 12.625 C6 13.285 6 13.945 6 14.625 C6.99 14.955 7.98 15.285 9 15.625 C9 17.275 9 18.925 9 20.625 C8.01 20.625 7.02 20.625 6 20.625 C6 23.265 6 25.905 6 28.625 C9.28634117 28.05838945 10.89360437 27.21962078 13 24.625 C13.61769355 21.67537331 13.46364932 18.69467159 13.4375 15.6875 C13.45748047 14.87603516 13.47746094 14.06457031 13.49804688 13.22851562 C13.49507516 9.6059993 13.36836176 7.26251142 11.53515625 4.08984375 C7.73470079 1.89389491 4.31417577 2.04230014 0 2.125 C-0.80695312 2.10953125 -1.61390625 2.0940625 -2.4453125 2.078125 C-6.04906915 2.10191217 -8.37971557 2.26508187 -11.53125 4.09375 Z " fill="#B26611" transform="translate(16,0.375)"/>
</svg>
