<?xml version="1.0" encoding="UTF-8"?>
<svg version="1.1" xmlns="http://www.w3.org/2000/svg" width="32" height="32">
<path d="M0 0 C0.89847656 -0.020625 1.79695313 -0.04125 2.72265625 -0.0625 C7.61634282 -0.09141395 11.24559842 -0.11110097 15.125 3.25 C16.55227587 7.53182762 16.34947769 11.63945436 16.375 16.125 C16.395625 17.02347656 16.41625 17.92195313 16.4375 18.84765625 C16.46641395 23.74134282 16.48610097 27.37059842 13.125 31.25 C8.84317238 32.67727587 4.73554564 32.47447769 0.25 32.5 C-0.64847656 32.520625 -1.54695312 32.54125 -2.47265625 32.5625 C-7.36634282 32.59141395 -10.99559842 32.61110097 -14.875 29.25 C-16.30227587 24.96817238 -16.09947769 20.86054564 -16.125 16.375 C-16.145625 15.47652344 -16.16625 14.57804688 -16.1875 13.65234375 C-16.21641395 8.75865718 -16.23610097 5.12940158 -12.875 1.25 C-8.59317238 -0.17727587 -4.48554564 0.02552231 0 0 Z M-12.875 6.25 C-13.33442166 8.41726503 -13.33442166 8.41726503 -13.2734375 10.8125 C-13.27730469 11.69164062 -13.28117188 12.57078125 -13.28515625 13.4765625 C-13.27355469 14.39179688 -13.26195312 15.30703125 -13.25 16.25 C-13.26160156 17.16523438 -13.27320313 18.08046875 -13.28515625 19.0234375 C-13.28128906 19.90257813 -13.27742187 20.78171875 -13.2734375 21.6875 C-13.27005371 22.49058594 -13.26666992 23.29367188 -13.26318359 24.12109375 C-12.77296896 26.80956646 -12.10035378 27.68268426 -9.875 29.25 C-7.70773497 29.70942166 -7.70773497 29.70942166 -5.3125 29.6484375 C-4.43335938 29.65230469 -3.55421875 29.65617187 -2.6484375 29.66015625 C-1.27558594 29.64275391 -1.27558594 29.64275391 0.125 29.625 C1.04023438 29.63660156 1.95546875 29.64820312 2.8984375 29.66015625 C3.77757813 29.65628906 4.65671875 29.65242188 5.5625 29.6484375 C6.36558594 29.64505371 7.16867188 29.64166992 7.99609375 29.63818359 C10.68456646 29.14796896 11.55768426 28.47535378 13.125 26.25 C13.58442166 24.08273497 13.58442166 24.08273497 13.5234375 21.6875 C13.52730469 20.80835937 13.53117187 19.92921875 13.53515625 19.0234375 C13.52355469 18.10820312 13.51195313 17.19296875 13.5 16.25 C13.51160156 15.33476562 13.52320312 14.41953125 13.53515625 13.4765625 C13.52935547 12.15785156 13.52935547 12.15785156 13.5234375 10.8125 C13.52005371 10.00941406 13.51666992 9.20632812 13.51318359 8.37890625 C13.02296896 5.69043354 12.35035378 4.81731574 10.125 3.25 C7.95773497 2.79057834 7.95773497 2.79057834 5.5625 2.8515625 C4.68335937 2.84769531 3.80421875 2.84382812 2.8984375 2.83984375 C1.52558594 2.85724609 1.52558594 2.85724609 0.125 2.875 C-0.79023438 2.86339844 -1.70546875 2.85179687 -2.6484375 2.83984375 C-3.96714844 2.84564453 -3.96714844 2.84564453 -5.3125 2.8515625 C-6.11558594 2.85494629 -6.91867188 2.85833008 -7.74609375 2.86181641 C-10.43456646 3.35203104 -11.30768426 4.02464622 -12.875 6.25 Z " fill="#AE6B12" transform="translate(15.875,-0.25)"/>
<path d="M0 0 C4.4571874 0.26218749 6.51522698 0.57711289 9.9375 3.5625 C10.618125 4.366875 11.29875 5.17125 12 6 C13.65 4.02 15.3 2.04 17 0 C17.66 0.33 18.32 0.66 19 1 C17.50163895 4.11198065 15.80066242 7.0534615 14 10 C14.51691406 10.61488281 15.03382812 11.22976562 15.56640625 11.86328125 C16.22511719 12.67152344 16.88382813 13.47976562 17.5625 14.3125 C18.22378906 15.11300781 18.88507812 15.91351563 19.56640625 16.73828125 C20.03949219 17.48464844 20.51257813 18.23101563 21 19 C20.67 19.99 20.34 20.98 20 22 C15.5428126 21.73781251 13.48477302 21.42288711 10.0625 18.4375 C9.0415625 17.2309375 9.0415625 17.2309375 8 16 C6.35 17.98 4.7 19.96 3 22 C2.34 21.67 1.68 21.34 1 21 C2.49836105 17.88801935 4.19933758 14.9465385 6 12 C5.48308594 11.38511719 4.96617188 10.77023437 4.43359375 10.13671875 C3.77488281 9.32847656 3.11617187 8.52023437 2.4375 7.6875 C1.77621094 6.88699219 1.11492188 6.08648437 0.43359375 5.26171875 C-0.27603516 4.14216797 -0.27603516 4.14216797 -1 3 C-0.67 2.01 -0.34 1.02 0 0 Z " fill="#AE6A10" transform="translate(6,5)"/>
</svg>
